<svg id="SvgjsSvg1150" width="305" height="700" xmlns="http://www.w3.org/2000/svg" version="1.1" xmlns:xlink="http://www.w3.org/1999/xlink" xmlns:svgjs="http://svgjs.com/svgjs"><defs id="SvgjsDefs1151"><marker id="SvgjsMarker1168" markerWidth="16" markerHeight="12" refX="16" refY="6" viewBox="0 0 16 12" orient="auto" markerUnits="userSpaceOnUse" stroke-dasharray="0,0"><path id="SvgjsPath1169" d="M0,2 L14,6 L0,11 L0,2" fill="#323232" stroke="#323232" stroke-width="2"></path></marker><marker id="SvgjsMarker1178" markerWidth="16" markerHeight="12" refX="16" refY="6" viewBox="0 0 16 12" orient="auto" markerUnits="userSpaceOnUse" stroke-dasharray="0,0"><path id="SvgjsPath1179" d="M0,2 L14,6 L0,11 L0,2" fill="#323232" stroke="#323232" stroke-width="2"></path></marker><marker id="SvgjsMarker1190" markerWidth="16" markerHeight="12" refX="16" refY="6" viewBox="0 0 16 12" orient="auto" markerUnits="userSpaceOnUse" stroke-dasharray="0,0"><path id="SvgjsPath1191" d="M0,2 L14,6 L0,11 L0,2" fill="#323232" stroke="#323232" stroke-width="2"></path></marker><marker id="SvgjsMarker1212" markerWidth="16" markerHeight="12" refX="16" refY="6" viewBox="0 0 16 12" orient="auto" markerUnits="userSpaceOnUse" stroke-dasharray="0,0"><path id="SvgjsPath1213" d="M0,2 L14,6 L0,11 L0,2" fill="#323232" stroke="#323232" stroke-width="2"></path></marker><marker id="SvgjsMarker1220" markerWidth="16" markerHeight="12" refX="16" refY="6" viewBox="0 0 16 12" orient="auto" markerUnits="userSpaceOnUse" stroke-dasharray="0,0"><path id="SvgjsPath1221" d="M0,2 L14,6 L0,11 L0,2" fill="#323232" stroke="#323232" stroke-width="2"></path></marker><marker id="SvgjsMarker1242" markerWidth="16" markerHeight="12" refX="16" refY="6" viewBox="0 0 16 12" orient="auto" markerUnits="userSpaceOnUse" stroke-dasharray="0,0"><path id="SvgjsPath1243" d="M0,2 L14,6 L0,11 L0,2" fill="#323232" stroke="#323232" stroke-width="2"></path></marker><marker id="SvgjsMarker1250" markerWidth="16" markerHeight="12" refX="16" refY="6" viewBox="0 0 16 12" orient="auto" markerUnits="userSpaceOnUse" stroke-dasharray="0,0"><path id="SvgjsPath1251" d="M0,2 L14,6 L0,11 L0,2" fill="#323232" stroke="#323232" stroke-width="2"></path></marker><marker id="SvgjsMarker1264" markerWidth="16" markerHeight="12" refX="16" refY="6" viewBox="0 0 16 12" orient="auto" markerUnits="userSpaceOnUse" stroke-dasharray="0,0"><path id="SvgjsPath1265" d="M0,2 L14,6 L0,11 L0,2" fill="#323232" stroke="#323232" stroke-width="2"></path></marker><marker id="SvgjsMarker1272" markerWidth="16" markerHeight="12" refX="16" refY="6" viewBox="0 0 16 12" orient="auto" markerUnits="userSpaceOnUse" stroke-dasharray="0,0"><path id="SvgjsPath1273" d="M0,2 L14,6 L0,11 L0,2" fill="#323232" stroke="#323232" stroke-width="2"></path></marker><marker id="SvgjsMarker1280" markerWidth="16" markerHeight="12" refX="16" refY="6" viewBox="0 0 16 12" orient="auto" markerUnits="userSpaceOnUse" stroke-dasharray="0,0"><path id="SvgjsPath1281" d="M0,2 L14,6 L0,11 L0,2" fill="#323232" stroke="#323232" stroke-width="2"></path></marker><marker id="SvgjsMarker1288" markerWidth="16" markerHeight="12" refX="16" refY="6" viewBox="0 0 16 12" orient="auto" markerUnits="userSpaceOnUse" stroke-dasharray="0,0"><path id="SvgjsPath1289" d="M0,2 L14,6 L0,11 L0,2" fill="#323232" stroke="#323232" stroke-width="2"></path></marker></defs><g id="SvgjsG1152" transform="translate(170,24.999999999999943)"><path id="SvgjsPath1153" d="M 16.666666666666668 0L 83.33333333333333 0C 105.55555555555556 0 105.55555555555556 50 83.33333333333333 50L 16.666666666666668 50C -5.555555555555556 50 -5.555555555555556 0 16.666666666666668 0Z" stroke="rgba(50,50,50,1)" stroke-width="2" fill-opacity="1" fill="#ffffff"></path><g id="SvgjsG1154"><text id="SvgjsText1155" font-family="微软雅黑" text-anchor="middle" font-size="13px" width="80px" fill="#323232" font-weight="400" align="middle" lineHeight="125%" anchor="middle" family="微软雅黑" size="13px" weight="400" font-style="" opacity="1" y="15.375" transform="rotate(0)"><tspan id="SvgjsTspan1156" dy="16" x="50"><tspan id="SvgjsTspan1157" style="text-decoration:;">开始</tspan></tspan></text></g></g><g id="SvgjsG1158" transform="translate(160,125)"><path id="SvgjsPath1159" d="M 23.333333333333332 0L 120 0L 96.66666666666667 70L 0 70L 23.333333333333332 0Z" stroke="rgba(50,50,50,1)" stroke-width="2" fill-opacity="1" fill="#ffffff"></path><g id="SvgjsG1160"><text id="SvgjsText1161" font-family="微软雅黑" text-anchor="middle" font-size="13px" width="84px" fill="#323232" font-weight="400" align="middle" lineHeight="125%" anchor="middle" family="微软雅黑" size="13px" weight="400" font-style="" opacity="1" y="17.375" transform="rotate(0)"><tspan id="SvgjsTspan1162" dy="16" x="60"><tspan id="SvgjsTspan1163" style="text-decoration:;">输入a、b、c </tspan></tspan><tspan id="SvgjsTspan1164" dy="16" x="60"><tspan id="SvgjsTspan1165" style="text-decoration:;">三个整数</tspan></tspan></text></g></g><g id="SvgjsG1166"><path id="SvgjsPath1167" d="M220 74.99999999999994L220 100L220 100L220 125" stroke="#323232" stroke-width="2" fill="none" marker-end="url(#SvgjsMarker1168)"></path></g><g id="SvgjsG1170" transform="translate(175,245)"><path id="SvgjsPath1171" d="M 0 35L 45 0L 90 35L 45 70L 0 35Z" stroke="rgba(50,50,50,1)" stroke-width="2" fill-opacity="1" fill="#ffffff"></path><g id="SvgjsG1172"><text id="SvgjsText1173" font-family="微软雅黑" text-anchor="middle" font-size="13px" width="70px" fill="#323232" font-weight="400" align="middle" lineHeight="125%" anchor="middle" family="微软雅黑" size="13px" weight="400" font-style="" opacity="1" y="25.375" transform="rotate(0)"><tspan id="SvgjsTspan1174" dy="16" x="45"><tspan id="SvgjsTspan1175" style="text-decoration:;">a &gt; b</tspan></tspan></text></g></g><g id="SvgjsG1176"><path id="SvgjsPath1177" d="M220 195L220 220L220 220L220 245" stroke="#323232" stroke-width="2" fill="none" marker-end="url(#SvgjsMarker1178)"></path></g><g id="SvgjsG1180" transform="translate(25,245)"><path id="SvgjsPath1181" d="M 0 0L 100 0L 100 70L 0 70Z" stroke="rgba(50,50,50,1)" stroke-width="2" fill-opacity="1" fill="#ffffff"></path><g id="SvgjsG1182"><text id="SvgjsText1183" font-family="微软雅黑" text-anchor="middle" font-size="13px" width="80px" fill="#323232" font-weight="400" align="middle" lineHeight="125%" anchor="middle" family="微软雅黑" size="13px" weight="400" font-style="" opacity="1" y="17.375" transform="rotate(0)"><tspan id="SvgjsTspan1184" dy="16" x="50"><tspan id="SvgjsTspan1185" style="text-decoration:;">变量a与b的</tspan></tspan><tspan id="SvgjsTspan1186" dy="16" x="50"><tspan id="SvgjsTspan1187" style="text-decoration:;">值互换</tspan></tspan></text></g></g><g id="SvgjsG1188"><path id="SvgjsPath1189" d="M175 280L150 280L150 280L125 280" stroke="#323232" stroke-width="2" fill="none" marker-end="url(#SvgjsMarker1190)"></path><rect id="SvgjsRect1192" width="7" height="16" x="146.5" y="272" fill="#ffffff"></rect><text id="SvgjsText1193" font-family="微软雅黑" text-anchor="middle" font-size="13px" width="7px" fill="#323232" font-weight="400" align="top" lineHeight="16px" anchor="middle" family="微软雅黑" size="13px" weight="400" font-style="" opacity="1" y="270.375" transform="rotate(0)"><tspan id="SvgjsTspan1194" dy="16" x="150"><tspan id="SvgjsTspan1195" style="text-decoration:;">T</tspan></tspan></text></g><g id="SvgjsG1196" transform="translate(175,365)"><path id="SvgjsPath1197" d="M 0 35L 45 0L 90 35L 45 70L 0 35Z" stroke="rgba(50,50,50,1)" stroke-width="2" fill-opacity="1" fill="#ffffff"></path><g id="SvgjsG1198"><text id="SvgjsText1199" font-family="微软雅黑" text-anchor="middle" font-size="13px" width="70px" fill="#323232" font-weight="400" align="middle" lineHeight="125%" anchor="middle" family="微软雅黑" size="13px" weight="400" font-style="" opacity="1" y="25.375" transform="rotate(0)"><tspan id="SvgjsTspan1200" dy="16" x="45"><tspan id="SvgjsTspan1201" style="text-decoration:;">a &gt; c</tspan></tspan></text></g></g><g id="SvgjsG1202" transform="translate(25,365)"><path id="SvgjsPath1203" d="M 0 0L 100 0L 100 70L 0 70Z" stroke="rgba(50,50,50,1)" stroke-width="2" fill-opacity="1" fill="#ffffff"></path><g id="SvgjsG1204"><text id="SvgjsText1205" font-family="微软雅黑" text-anchor="middle" font-size="13px" width="80px" fill="#323232" font-weight="400" align="middle" lineHeight="125%" anchor="middle" family="微软雅黑" size="13px" weight="400" font-style="" opacity="1" y="17.375" transform="rotate(0)"><tspan id="SvgjsTspan1206" dy="16" x="50"><tspan id="SvgjsTspan1207" style="text-decoration:;">变量a与c的值</tspan></tspan><tspan id="SvgjsTspan1208" dy="16" x="50"><tspan id="SvgjsTspan1209" style="text-decoration:;">互换</tspan></tspan></text></g></g><g id="SvgjsG1210"><path id="SvgjsPath1211" d="M175 400L150 400L150 400L125 400" stroke="#323232" stroke-width="2" fill="none" marker-end="url(#SvgjsMarker1212)"></path><rect id="SvgjsRect1214" width="7" height="16" x="146.5" y="392" fill="#ffffff"></rect><text id="SvgjsText1215" font-family="微软雅黑" text-anchor="middle" font-size="13px" width="7px" fill="#323232" font-weight="400" align="top" lineHeight="16px" anchor="middle" family="微软雅黑" size="13px" weight="400" font-style="" opacity="1" y="390.375" transform="rotate(0)"><tspan id="SvgjsTspan1216" dy="16" x="150"><tspan id="SvgjsTspan1217" style="text-decoration:;">T</tspan></tspan></text></g><g id="SvgjsG1218"><path id="SvgjsPath1219" d="M220 315L220 340L220 340L220 365" stroke="#323232" stroke-width="2" fill="none" marker-end="url(#SvgjsMarker1220)"></path><rect id="SvgjsRect1222" width="7" height="16" x="216.5" y="332" fill="#ffffff"></rect><text id="SvgjsText1223" font-family="微软雅黑" text-anchor="middle" font-size="13px" width="7px" fill="#323232" font-weight="400" align="top" lineHeight="16px" anchor="middle" family="微软雅黑" size="13px" weight="400" font-style="" opacity="1" y="330.375" transform="rotate(0)"><tspan id="SvgjsTspan1224" dy="16" x="220"><tspan id="SvgjsTspan1225" style="text-decoration:;">F</tspan></tspan></text></g><g id="SvgjsG1226" transform="translate(175,485)"><path id="SvgjsPath1227" d="M 0 35L 45 0L 90 35L 45 70L 0 35Z" stroke="rgba(50,50,50,1)" stroke-width="2" fill-opacity="1" fill="#ffffff"></path><g id="SvgjsG1228"><text id="SvgjsText1229" font-family="微软雅黑" text-anchor="middle" font-size="13px" width="70px" fill="#323232" font-weight="400" align="middle" lineHeight="125%" anchor="middle" family="微软雅黑" size="13px" weight="400" font-style="" opacity="1" y="25.375" transform="rotate(0)"><tspan id="SvgjsTspan1230" dy="16" x="45"><tspan id="SvgjsTspan1231" style="text-decoration:;">b &gt; c</tspan></tspan></text></g></g><g id="SvgjsG1232" transform="translate(25,485)"><path id="SvgjsPath1233" d="M 0 0L 100 0L 100 70L 0 70Z" stroke="rgba(50,50,50,1)" stroke-width="2" fill-opacity="1" fill="#ffffff"></path><g id="SvgjsG1234"><text id="SvgjsText1235" font-family="微软雅黑" text-anchor="middle" font-size="13px" width="80px" fill="#323232" font-weight="400" align="middle" lineHeight="125%" anchor="middle" family="微软雅黑" size="13px" weight="400" font-style="" opacity="1" y="17.375" transform="rotate(0)"><tspan id="SvgjsTspan1236" dy="16" x="50"><tspan id="SvgjsTspan1237" style="text-decoration:;">变量b与c的值</tspan></tspan><tspan id="SvgjsTspan1238" dy="16" x="50"><tspan id="SvgjsTspan1239" style="text-decoration:;">互换</tspan></tspan></text></g></g><g id="SvgjsG1240"><path id="SvgjsPath1241" d="M220 435L220 460L220 460L220 485" stroke="#323232" stroke-width="2" fill="none" marker-end="url(#SvgjsMarker1242)"></path><rect id="SvgjsRect1244" width="7" height="16" x="216.5" y="452" fill="#ffffff"></rect><text id="SvgjsText1245" font-family="微软雅黑" text-anchor="middle" font-size="13px" width="7px" fill="#323232" font-weight="400" align="top" lineHeight="16px" anchor="middle" family="微软雅黑" size="13px" weight="400" font-style="" opacity="1" y="450.375" transform="rotate(0)"><tspan id="SvgjsTspan1246" dy="16" x="220"><tspan id="SvgjsTspan1247" style="text-decoration:;">F</tspan></tspan></text></g><g id="SvgjsG1248"><path id="SvgjsPath1249" d="M175 520L150 520L150 520L125 520" stroke="#323232" stroke-width="2" fill="none" marker-end="url(#SvgjsMarker1250)"></path><rect id="SvgjsRect1252" width="7" height="16" x="146.5" y="512" fill="#ffffff"></rect><text id="SvgjsText1253" font-family="微软雅黑" text-anchor="middle" font-size="13px" width="7px" fill="#323232" font-weight="400" align="top" lineHeight="16px" anchor="middle" family="微软雅黑" size="13px" weight="400" font-style="" opacity="1" y="510.375" transform="rotate(0)"><tspan id="SvgjsTspan1254" dy="16" x="150"><tspan id="SvgjsTspan1255" style="text-decoration:;">T</tspan></tspan></text></g><g id="SvgjsG1256" transform="translate(165,605)"><path id="SvgjsPath1257" d="M 23.333333333333332 0L 110 0L 86.66666666666667 70L 0 70L 23.333333333333332 0Z" stroke="rgba(50,50,50,1)" stroke-width="2" fill-opacity="1" fill="#ffffff"></path><g id="SvgjsG1258"><text id="SvgjsText1259" font-family="微软雅黑" text-anchor="middle" font-size="13px" width="77px" fill="#323232" font-weight="400" align="middle" lineHeight="125%" anchor="middle" family="微软雅黑" size="13px" weight="400" font-style="" opacity="1" y="25.375" transform="rotate(0)"><tspan id="SvgjsTspan1260" dy="16" x="55"><tspan id="SvgjsTspan1261" style="text-decoration:;">输出a、b、c</tspan></tspan></text></g></g><g id="SvgjsG1262"><path id="SvgjsPath1263" d="M220 555L220 580L220 580L220 605" stroke="#323232" stroke-width="2" fill="none" marker-end="url(#SvgjsMarker1264)"></path><rect id="SvgjsRect1266" width="7" height="16" x="216.5" y="572" fill="#ffffff"></rect><text id="SvgjsText1267" font-family="微软雅黑" text-anchor="middle" font-size="13px" width="7px" fill="#323232" font-weight="400" align="top" lineHeight="16px" anchor="middle" family="微软雅黑" size="13px" weight="400" font-style="" opacity="1" y="570.375" transform="rotate(0)"><tspan id="SvgjsTspan1268" dy="16" x="220"><tspan id="SvgjsTspan1269" style="text-decoration:;">F</tspan></tspan></text></g><g id="SvgjsG1270"><path id="SvgjsPath1271" d="M75 315L75 340L220 340L220 365" stroke="#323232" stroke-width="2" fill="none" marker-end="url(#SvgjsMarker1272)"></path><rect id="SvgjsRect1274" width="7" height="16" x="144" y="332" fill="#ffffff"></rect><text id="SvgjsText1275" font-family="微软雅黑" text-anchor="middle" font-size="13px" width="7px" fill="#323232" font-weight="400" align="top" lineHeight="16px" anchor="middle" family="微软雅黑" size="13px" weight="400" font-style="" opacity="1" y="330.375" transform="rotate(0)"><tspan id="SvgjsTspan1276" dy="16" x="147.5"><tspan id="SvgjsTspan1277" style="text-decoration:;">F</tspan></tspan></text></g><g id="SvgjsG1278"><path id="SvgjsPath1279" d="M75 435L75 460L220 460L220 485" stroke="#323232" stroke-width="2" fill="none" marker-end="url(#SvgjsMarker1280)"></path><rect id="SvgjsRect1282" width="7" height="16" x="144" y="452" fill="#ffffff"></rect><text id="SvgjsText1283" font-family="微软雅黑" text-anchor="middle" font-size="13px" width="7px" fill="#323232" font-weight="400" align="top" lineHeight="16px" anchor="middle" family="微软雅黑" size="13px" weight="400" font-style="" opacity="1" y="450.375" transform="rotate(0)"><tspan id="SvgjsTspan1284" dy="16" x="147.5"><tspan id="SvgjsTspan1285" style="text-decoration:;">F</tspan></tspan></text></g><g id="SvgjsG1286"><path id="SvgjsPath1287" d="M75 555L75 580L220 580L220 605" stroke="#323232" stroke-width="2" fill="none" marker-end="url(#SvgjsMarker1288)"></path><rect id="SvgjsRect1290" width="7" height="16" x="144" y="572" fill="#ffffff"></rect><text id="SvgjsText1291" font-family="微软雅黑" text-anchor="middle" font-size="13px" width="7px" fill="#323232" font-weight="400" align="top" lineHeight="16px" anchor="middle" family="微软雅黑" size="13px" weight="400" font-style="" opacity="1" y="570.375" transform="rotate(0)"><tspan id="SvgjsTspan1292" dy="16" x="147.5"><tspan id="SvgjsTspan1293" style="text-decoration:;">F</tspan></tspan></text></g></svg>